# xmcd CD database file
#
# Track frame offsets:
#	150
#	21225
#	41325
#	62370
#
# Disc length: 1097 seconds
#
# Revision: 0
# Processed by: cddbd v1.5PL3 Copyright (c) Steve Scherf et al.
# Submitted via: CDex 1.50
#
DISCID=26044704
DTITLE=DEEN - ユートピアは見えているのに
DYEAR=2003
DGENRE=J-POP
TTITLE0=ユートピアは見えてるのに
TTITLE1=Re-Birth
TTITLE2=ユートピアは見えてるのに 〜instrumental〜
TTITLE3=Re-Birth 〜instrumental〜
EXTD=YEAR: 2003
EXTT0=
EXTT1=
EXTT2=
EXTT3=
PLAYORDER=
